<?xml version="1.0" encoding="UTF-8"?><svg id="logo" xmlns="http://www.w3.org/2000/svg" viewBox="0 0 355.71 52.88"><path id="logo_fname_b" d="M43.91,38.04c0,4.5-1.69,7.98-5.06,10.44s-8.06,3.69-14.06,3.69H0V2.64H22.68c6.05,0,10.62,1.05,13.73,3.15,3.11,2.1,4.66,5.2,4.66,9.3,0,2.81-.78,5.19-2.34,7.12-1.56,1.93-3.93,3.24-7.12,3.92,4.01,.47,7.06,1.73,9.16,3.78,2.1,2.05,3.15,4.76,3.15,8.14Zm-13.29-21.55c0-2.23-.71-3.81-2.13-4.75-1.42-.94-3.52-1.41-6.31-1.41H10.37v12.27h11.88c2.93,0,5.06-.51,6.38-1.53,1.32-1.02,1.99-2.55,1.99-4.59Zm2.88,20.74c0-4.64-3.33-6.96-9.98-6.96H10.37v14.2h13.54c3.33,0,5.76-.6,7.29-1.81,1.53-1.21,2.3-3.02,2.3-5.43Z"/><path id="logo_fname_r" d="M52.21,52.17V23.06c0-2.09-.03-3.83-.09-5.22-.06-1.39-.12-2.63-.19-3.71h9.42c.07,.42,.16,1.71,.28,3.85,.12,2.14,.18,3.57,.18,4.27h.14c.96-2.67,1.82-4.55,2.57-5.64,.75-1.09,1.64-1.9,2.67-2.43,1.03-.53,2.32-.79,3.87-.79,1.27,0,2.29,.18,3.06,.53v8.26c-1.59-.35-3-.53-4.22-.53-2.46,0-4.38,1-5.75,2.99-1.37,1.99-2.06,4.95-2.06,8.86v18.67h-9.88Z"/><path id="logo_fname_i" d="M80.23,7.28V0h9.88V7.28h-9.88Zm0,44.89V14.13h9.88V52.17h-9.88Z"/><path id="logo_fname_a" d="M109.02,52.88c-3.68,0-6.55-1-8.61-3.01-2.06-2-3.09-4.82-3.09-8.46,0-3.94,1.28-6.94,3.85-9,2.57-2.06,6.29-3.12,11.16-3.16l8.19-.14v-1.93c0-2.48-.43-4.33-1.3-5.54-.87-1.21-2.29-1.81-4.25-1.81-1.83,0-3.17,.42-4.03,1.25-.86,.83-1.39,2.21-1.6,4.13l-10.3-.49c.63-3.7,2.33-6.51,5.08-8.42,2.75-1.91,6.51-2.87,11.27-2.87s8.51,1.18,11.11,3.55c2.6,2.37,3.9,5.73,3.9,10.09v13.85c0,2.13,.24,3.6,.72,4.41,.48,.81,1.28,1.21,2.41,1.21,.75,0,1.48-.07,2.18-.21v5.34c-.59,.14-1.11,.27-1.58,.39-.47,.12-.94,.21-1.41,.28-.47,.07-.97,.13-1.49,.18-.53,.05-1.14,.07-1.85,.07-2.48,0-4.32-.61-5.5-1.83-1.18-1.22-1.89-3.01-2.13-5.38h-.21c-2.77,4.99-6.94,7.49-12.52,7.49Zm11.5-18.32l-5.06,.07c-2.3,.09-3.93,.35-4.89,.76-.96,.41-1.69,1.04-2.2,1.88-.5,.84-.76,1.97-.76,3.38,0,1.81,.42,3.15,1.25,4.03,.83,.88,1.94,1.32,3.32,1.32,1.55,0,2.96-.42,4.24-1.27,1.28-.84,2.28-2.01,3.01-3.5,.73-1.49,1.09-3.06,1.09-4.73v-1.93Z"/><path id="logo_fname_n" d="M164.92,52.17V30.83c0-6.68-2.26-10.02-6.79-10.02-2.39,0-4.32,1.03-5.78,3.08-1.46,2.05-2.2,4.68-2.2,7.89v20.39h-9.88V22.64c0-2.04-.03-3.71-.09-5.01-.06-1.3-.12-2.47-.19-3.5h9.42c.07,.45,.16,1.63,.28,3.57,.12,1.93,.18,3.26,.18,3.99h.14c1.34-2.91,3.01-5.02,5.03-6.33,2.02-1.31,4.42-1.97,7.21-1.97,4.03,0,7.12,1.24,9.28,3.73,2.16,2.48,3.23,6.12,3.23,10.9v24.15h-9.84Z"/><path id="logo_lname_c" d="M227.18,44.72c6.26,0,10.6-3.14,13.04-9.42l9.04,3.41c-1.95,4.78-4.8,8.34-8.56,10.67-3.76,2.33-8.27,3.5-13.52,3.5-7.97,0-14.13-2.26-18.47-6.77-4.35-4.51-6.52-10.82-6.52-18.93s2.1-14.38,6.29-18.74c4.2-4.36,10.28-6.54,18.25-6.54,5.81,0,10.55,1.17,14.2,3.5,3.66,2.33,6.22,5.76,7.7,10.28l-9.14,2.5c-.77-2.48-2.29-4.46-4.55-5.92-2.26-1.46-4.93-2.2-8-2.2-4.69,0-8.24,1.45-10.67,4.36-2.43,2.91-3.64,7.16-3.64,12.76s1.25,10.04,3.74,13.04c2.5,3,6.1,4.5,10.81,4.5Z"/><path id="logo_lname_o" d="M292.39,33.12c0,6.16-1.71,11-5.13,14.5-3.42,3.5-8.16,5.26-14.2,5.26s-10.58-1.76-13.96-5.27-5.06-8.34-5.06-14.48,1.69-10.93,5.06-14.43c3.38-3.5,8.1-5.26,14.17-5.26s10.95,1.69,14.22,5.08c3.27,3.39,4.9,8.26,4.9,14.61Zm-10.34,0c0-4.52-.74-7.8-2.21-9.84s-3.62-3.06-6.43-3.06c-6,0-9,4.3-9,12.9,0,4.24,.73,7.47,2.2,9.69,1.46,2.21,3.58,3.32,6.35,3.32,6.07,0,9.11-4.34,9.11-13.01Z"/><path id="logo_lname_i" d="M300.23,7.28V0h9.88V7.28h-9.88Zm0,44.89V14.13h9.88V52.17h-9.88Z"/><path id="logo_lname_a" d="M329.03,52.88c-3.68,0-6.55-1-8.61-3.01-2.06-2-3.09-4.82-3.09-8.46,0-3.94,1.28-6.94,3.85-9,2.57-2.06,6.29-3.12,11.16-3.16l8.19-.14v-1.93c0-2.48-.43-4.33-1.3-5.54-.87-1.21-2.29-1.81-4.25-1.81-1.83,0-3.17,.42-4.03,1.25-.86,.83-1.39,2.21-1.6,4.13l-10.3-.49c.63-3.7,2.33-6.51,5.08-8.42,2.75-1.91,6.51-2.87,11.27-2.87s8.51,1.18,11.11,3.55c2.6,2.37,3.9,5.73,3.9,10.09v13.85c0,2.13,.24,3.6,.72,4.41s1.28,1.21,2.41,1.21c.75,0,1.48-.07,2.18-.21v5.34c-.59,.14-1.11,.27-1.58,.39s-.94,.21-1.41,.28-.97,.13-1.49,.18c-.53,.05-1.14,.07-1.85,.07-2.48,0-4.32-.61-5.5-1.83-1.18-1.22-1.89-3.01-2.13-5.38h-.21c-2.77,4.99-6.94,7.49-12.52,7.49Zm11.5-18.32l-5.06,.07c-2.3,.09-3.93,.35-4.89,.76-.96,.41-1.69,1.04-2.2,1.88-.5,.84-.76,1.97-.76,3.38,0,1.81,.42,3.15,1.25,4.03,.83,.88,1.94,1.32,3.32,1.32,1.55,0,2.96-.42,4.24-1.27,1.28-.84,2.28-2.01,3.01-3.5,.73-1.49,1.09-3.06,1.09-4.73v-1.93Z"/></svg>